<?xml version="1.0" encoding="UTF-8" standalone="no"?>
<!DOCTYPE svg PUBLIC "-//W3C//DTD SVG 1.1//EN" "http://www.w3.org/Graphics/SVG/1.1/DTD/svg11.dtd">
<svg width="100%" height="100%" viewBox="0 0 32 32" version="1.1" xmlns="http://www.w3.org/2000/svg" xmlns:xlink="http://www.w3.org/1999/xlink" xml:space="preserve" style="fill-rule:evenodd;clip-rule:evenodd;stroke-linejoin:round;stroke-miterlimit:1.41421;">
    <path d="M7.98,21.013L3.404,25.584L5.118,27.316L9.707,22.755L7.98,21.013Z" style="fill:rgb(255,98,0);"/>
    <path d="M11.338,21.067L12.974,22.703L29.948,8.031L31.134,1.328L11.338,21.067Z" style="fill:rgb(152,165,224);"/>
    <path d="M9.63,19.394L11.314,21.086L31.127,1.347L24.28,2.415L9.63,19.394Z" style="fill:rgb(196,202,236);"/>
    <path d="M11.328,24.399L9.691,22.768L5.109,27.288L6.734,28.945L11.328,24.399Z" style="fill:rgb(228,61,0);"/>
    <g transform="matrix(1.4048,1.4048,-1.02027,1.02027,22.5099,-3.19474)">
        <path d="M7.459,17.759C7.459,17.526 7.322,17.337 7.153,17.337L2.133,17.337C1.964,17.337 1.827,17.526 1.827,17.759L1.827,18.602C1.827,18.835 1.964,19.024 2.133,19.024L7.153,19.024C7.322,19.024 7.459,18.835 7.459,18.602L7.459,17.759Z" style="fill:rgb(255,176,0);"/>
    </g>
    <g transform="matrix(1.00522,1.00522,-1.02027,1.02027,18.1511,4.91021)">
        <path d="M7.459,17.759C7.459,17.526 7.267,17.337 7.031,17.337L2.255,17.337C2.019,17.337 1.827,17.526 1.827,17.759L1.827,18.602C1.827,18.835 2.019,19.024 2.255,19.024L7.031,19.024C7.267,19.024 7.459,18.835 7.459,18.602L7.459,17.759Z" style="fill:rgb(255,176,0);"/>
    </g>
</svg>
